<?xml version="1.0" encoding="UTF-8" standalone="no"?>
<!DOCTYPE svg PUBLIC "-//W3C//DTD SVG 1.1//EN" "http://www.w3.org/Graphics/SVG/1.1/DTD/svg11.dtd">
<svg width="100%" height="100%" viewBox="0 0 256 256" version="1.1" xmlns="http://www.w3.org/2000/svg" xmlns:xlink="http://www.w3.org/1999/xlink" xml:space="preserve" xmlns:serif="http://www.serif.com/" style="fill-rule:evenodd;clip-rule:evenodd;stroke-linejoin:round;stroke-miterlimit:2;">
    <g transform="matrix(2.06452,0,0,2.048,2.06452,10.24)">
        <rect x="-1" y="-5" width="124" height="125" style="fill:white;"/>
    </g>
    <g transform="matrix(1.65546,0,0,1.65546,-141.013,7.97899)">
        <path d="M162.5,13C173.343,13 171.28,51.304 171.197,51.503C171.28,51.304 196.905,22.76 204.573,30.427C212.24,38.095 183.696,63.72 183.497,63.803C183.696,63.72 222,61.657 222,72.5C222,83.343 183.696,81.28 183.497,81.197C183.696,81.28 212.24,106.905 204.573,114.573C196.905,122.24 171.28,93.696 171.197,93.497C171.28,93.696 173.343,132 162.5,132C151.657,132 153.72,93.696 153.803,93.497C153.72,93.696 128.095,122.24 120.427,114.573C112.76,106.905 141.304,81.28 141.503,81.197C141.304,81.28 103,83.343 103,72.5C103,61.657 141.304,63.72 141.503,63.803C141.304,63.72 112.76,38.095 120.427,30.427C128.095,22.76 153.72,51.304 153.803,51.503C153.72,51.304 151.657,13 162.5,13Z" style="fill:rgb(0,182,255);"/>
    </g>
</svg>
